<mxfile host="app.diagrams.net" modified="2021-05-14T00:40:01.574Z" agent="5.0 (Windows)" etag="n57ci40GH73nfqyxSj1J" version="14.6.12" type="github">
  <diagram id="Zmj1FCLTnXu52TwQ3R6O" name="Page-1">
    <mxGraphModel dx="2249" dy="791" grid="1" gridSize="10" guides="1" tooltips="1" connect="1" arrows="1" fold="1" page="1" pageScale="1" pageWidth="827" pageHeight="1169" math="0" shadow="0">
      <root>
        <mxCell id="0" />
        <mxCell id="1" parent="0" />
        <mxCell id="ojleg3UiXAgGKh8UfWWG-2" value="Funcionários" style="rounded=0;whiteSpace=wrap;html=1;" parent="1" vertex="1">
          <mxGeometry x="80" y="40" width="160" height="80" as="geometry" />
        </mxCell>
        <mxCell id="KPG-XOJzVi3PqvCxfSUZ-7" value="Atendente" style="shape=ext;double=1;rounded=0;whiteSpace=wrap;html=1;" parent="1" vertex="1">
          <mxGeometry y="360" width="120" height="80" as="geometry" />
        </mxCell>
        <mxCell id="KPG-XOJzVi3PqvCxfSUZ-8" value="Entregador" style="shape=ext;double=1;rounded=0;whiteSpace=wrap;html=1;" parent="1" vertex="1">
          <mxGeometry x="200" y="360" width="120" height="80" as="geometry" />
        </mxCell>
        <mxCell id="KPG-XOJzVi3PqvCxfSUZ-21" value="" style="endArrow=none;html=1;" parent="1" edge="1">
          <mxGeometry width="50" height="50" relative="1" as="geometry">
            <mxPoint x="139.43" y="200" as="sourcePoint" />
            <mxPoint x="139.43" y="120" as="targetPoint" />
          </mxGeometry>
        </mxCell>
        <mxCell id="KPG-XOJzVi3PqvCxfSUZ-23" value="" style="endArrow=none;html=1;entryX=0;entryY=1;entryDx=0;entryDy=0;" parent="1" edge="1">
          <mxGeometry width="50" height="50" relative="1" as="geometry">
            <mxPoint x="60" y="360" as="sourcePoint" />
            <mxPoint x="140" y="260" as="targetPoint" />
          </mxGeometry>
        </mxCell>
        <mxCell id="KPG-XOJzVi3PqvCxfSUZ-24" value="" style="endArrow=none;html=1;" parent="1" edge="1">
          <mxGeometry width="50" height="50" relative="1" as="geometry">
            <mxPoint x="250" y="360" as="sourcePoint" />
            <mxPoint x="168.18181818181824" y="261.81818181818187" as="targetPoint" />
          </mxGeometry>
        </mxCell>
        <mxCell id="KPG-XOJzVi3PqvCxfSUZ-33" value="Pedido" style="rounded=0;whiteSpace=wrap;html=1;" parent="1" vertex="1">
          <mxGeometry x="160" y="600" width="160" height="80" as="geometry" />
        </mxCell>
        <mxCell id="KPG-XOJzVi3PqvCxfSUZ-35" value="Cliente" style="rounded=0;whiteSpace=wrap;html=1;" parent="1" vertex="1">
          <mxGeometry x="630" y="585" width="160" height="80" as="geometry" />
        </mxCell>
        <mxCell id="KPG-XOJzVi3PqvCxfSUZ-36" value="Produtos" style="rounded=0;whiteSpace=wrap;html=1;" parent="1" vertex="1">
          <mxGeometry x="200" y="840" width="160" height="80" as="geometry" />
        </mxCell>
        <mxCell id="KPG-XOJzVi3PqvCxfSUZ-37" value="Bairro" style="rounded=0;whiteSpace=wrap;html=1;" parent="1" vertex="1">
          <mxGeometry x="1000" y="585" width="160" height="80" as="geometry" />
        </mxCell>
        <mxCell id="KPG-XOJzVi3PqvCxfSUZ-38" value="&lt;div&gt;Estoque&lt;/div&gt;" style="rounded=0;whiteSpace=wrap;html=1;" parent="1" vertex="1">
          <mxGeometry x="-240" y="840" width="160" height="80" as="geometry" />
        </mxCell>
        <mxCell id="KPG-XOJzVi3PqvCxfSUZ-40" value="Pizza" style="rounded=0;whiteSpace=wrap;html=1;" parent="1" vertex="1">
          <mxGeometry x="640" y="840" width="160" height="80" as="geometry" />
        </mxCell>
        <mxCell id="KPG-XOJzVi3PqvCxfSUZ-41" value="Tamanho" style="rounded=0;whiteSpace=wrap;html=1;" parent="1" vertex="1">
          <mxGeometry x="1040" y="840" width="160" height="80" as="geometry" />
        </mxCell>
        <mxCell id="KPG-XOJzVi3PqvCxfSUZ-203" style="edgeStyle=orthogonalEdgeStyle;rounded=0;orthogonalLoop=1;jettySize=auto;html=1;entryX=0;entryY=1;entryDx=0;entryDy=0;" parent="1" source="KPG-XOJzVi3PqvCxfSUZ-47" target="KPG-XOJzVi3PqvCxfSUZ-57" edge="1">
          <mxGeometry relative="1" as="geometry" />
        </mxCell>
        <mxCell id="KPG-XOJzVi3PqvCxfSUZ-47" value="Nome" style="ellipse;whiteSpace=wrap;html=1;align=center;" parent="1" vertex="1">
          <mxGeometry x="325" y="1070" width="50" height="40" as="geometry" />
        </mxCell>
        <mxCell id="KPG-XOJzVi3PqvCxfSUZ-194" style="edgeStyle=orthogonalEdgeStyle;rounded=0;orthogonalLoop=1;jettySize=auto;html=1;entryX=0.925;entryY=1;entryDx=0;entryDy=0;entryPerimeter=0;" parent="1" source="KPG-XOJzVi3PqvCxfSUZ-49" target="KPG-XOJzVi3PqvCxfSUZ-40" edge="1">
          <mxGeometry relative="1" as="geometry" />
        </mxCell>
        <mxCell id="KPG-XOJzVi3PqvCxfSUZ-49" value="Nome" style="ellipse;whiteSpace=wrap;html=1;align=center;" parent="1" vertex="1">
          <mxGeometry x="760" y="960" width="60" height="40" as="geometry" />
        </mxCell>
        <mxCell id="KPG-XOJzVi3PqvCxfSUZ-198" style="edgeStyle=orthogonalEdgeStyle;rounded=0;orthogonalLoop=1;jettySize=auto;html=1;entryX=0.181;entryY=1.038;entryDx=0;entryDy=0;entryPerimeter=0;" parent="1" source="KPG-XOJzVi3PqvCxfSUZ-52" target="KPG-XOJzVi3PqvCxfSUZ-40" edge="1">
          <mxGeometry relative="1" as="geometry" />
        </mxCell>
        <mxCell id="KPG-XOJzVi3PqvCxfSUZ-52" value="Número_Pizza" style="ellipse;whiteSpace=wrap;html=1;align=center;fontStyle=4;" parent="1" vertex="1">
          <mxGeometry x="620" y="970" width="100" height="40" as="geometry" />
        </mxCell>
        <mxCell id="KPG-XOJzVi3PqvCxfSUZ-53" value="Nome" style="ellipse;whiteSpace=wrap;html=1;align=center;" parent="1" vertex="1">
          <mxGeometry x="620" y="700" width="100" height="40" as="geometry" />
        </mxCell>
        <mxCell id="KPG-XOJzVi3PqvCxfSUZ-54" value="Telefone_Cliente" style="ellipse;whiteSpace=wrap;html=1;align=center;fontStyle=4;" parent="1" vertex="1">
          <mxGeometry x="750" y="700" width="100" height="40" as="geometry" />
        </mxCell>
        <mxCell id="KPG-XOJzVi3PqvCxfSUZ-184" style="edgeStyle=orthogonalEdgeStyle;rounded=0;orthogonalLoop=1;jettySize=auto;html=1;entryX=1;entryY=0;entryDx=0;entryDy=0;" parent="1" source="KPG-XOJzVi3PqvCxfSUZ-55" target="KPG-XOJzVi3PqvCxfSUZ-8" edge="1">
          <mxGeometry relative="1" as="geometry" />
        </mxCell>
        <mxCell id="KPG-XOJzVi3PqvCxfSUZ-55" value="Telefone_Cliente" style="ellipse;whiteSpace=wrap;html=1;align=center;" parent="1" vertex="1">
          <mxGeometry x="265" y="300" width="100" height="30" as="geometry" />
        </mxCell>
        <mxCell id="KPG-XOJzVi3PqvCxfSUZ-56" value="Bebidas" style="shape=ext;double=1;rounded=0;whiteSpace=wrap;html=1;" parent="1" vertex="1">
          <mxGeometry x="30" y="1010" width="120" height="80" as="geometry" />
        </mxCell>
        <mxCell id="KPG-XOJzVi3PqvCxfSUZ-57" value="Sobremesas" style="shape=ext;double=1;rounded=0;whiteSpace=wrap;html=1;" parent="1" vertex="1">
          <mxGeometry x="410" y="1000" width="120" height="80" as="geometry" />
        </mxCell>
        <mxCell id="KPG-XOJzVi3PqvCxfSUZ-188" value="" style="edgeStyle=orthogonalEdgeStyle;rounded=0;orthogonalLoop=1;jettySize=auto;html=1;" parent="1" source="KPG-XOJzVi3PqvCxfSUZ-58" target="KPG-XOJzVi3PqvCxfSUZ-41" edge="1">
          <mxGeometry relative="1" as="geometry" />
        </mxCell>
        <mxCell id="KPG-XOJzVi3PqvCxfSUZ-58" value="Descrição" style="ellipse;whiteSpace=wrap;html=1;align=center;fontStyle=4;" parent="1" vertex="1">
          <mxGeometry x="1050" y="950" width="100" height="40" as="geometry" />
        </mxCell>
        <mxCell id="KPG-XOJzVi3PqvCxfSUZ-60" value="Cliente_Fidelidade" style="shape=ext;double=1;rounded=0;whiteSpace=wrap;html=1;" parent="1" vertex="1">
          <mxGeometry x="610" y="350" width="120" height="80" as="geometry" />
        </mxCell>
        <mxCell id="M0uIH-TrYU2wMvutDTAN-3" value="" style="edgeStyle=orthogonalEdgeStyle;rounded=0;orthogonalLoop=1;jettySize=auto;html=1;" parent="1" source="KPG-XOJzVi3PqvCxfSUZ-61" target="KPG-XOJzVi3PqvCxfSUZ-60" edge="1">
          <mxGeometry relative="1" as="geometry">
            <Array as="points">
              <mxPoint x="750" y="400" />
            </Array>
          </mxGeometry>
        </mxCell>
        <mxCell id="KPG-XOJzVi3PqvCxfSUZ-61" value="Telefone_Cliente" style="ellipse;whiteSpace=wrap;html=1;align=center;fontStyle=4;" parent="1" vertex="1">
          <mxGeometry x="700" y="520" width="100" height="40" as="geometry" />
        </mxCell>
        <mxCell id="KPG-XOJzVi3PqvCxfSUZ-182" value="" style="edgeStyle=orthogonalEdgeStyle;rounded=0;orthogonalLoop=1;jettySize=auto;html=1;" parent="1" source="KPG-XOJzVi3PqvCxfSUZ-62" target="KPG-XOJzVi3PqvCxfSUZ-60" edge="1">
          <mxGeometry relative="1" as="geometry" />
        </mxCell>
        <mxCell id="KPG-XOJzVi3PqvCxfSUZ-62" value="Quantidade de Pedidos" style="ellipse;whiteSpace=wrap;html=1;align=center;" parent="1" vertex="1">
          <mxGeometry x="610" y="270" width="100" height="40" as="geometry" />
        </mxCell>
        <mxCell id="KPG-XOJzVi3PqvCxfSUZ-205" style="edgeStyle=orthogonalEdgeStyle;rounded=0;orthogonalLoop=1;jettySize=auto;html=1;entryX=0.167;entryY=0.988;entryDx=0;entryDy=0;entryPerimeter=0;" parent="1" source="KPG-XOJzVi3PqvCxfSUZ-64" target="KPG-XOJzVi3PqvCxfSUZ-56" edge="1">
          <mxGeometry relative="1" as="geometry" />
        </mxCell>
        <mxCell id="KPG-XOJzVi3PqvCxfSUZ-64" value="Nome" style="ellipse;whiteSpace=wrap;html=1;align=center;" parent="1" vertex="1">
          <mxGeometry x="30" y="1129" width="40" height="40" as="geometry" />
        </mxCell>
        <mxCell id="CF_QVuXvldoDAZXPr2X7-2" value="" style="edgeStyle=orthogonalEdgeStyle;rounded=0;orthogonalLoop=1;jettySize=auto;html=1;" parent="1" source="KPG-XOJzVi3PqvCxfSUZ-66" target="KPG-XOJzVi3PqvCxfSUZ-36" edge="1">
          <mxGeometry relative="1" as="geometry" />
        </mxCell>
        <mxCell id="KPG-XOJzVi3PqvCxfSUZ-66" value="Código_Produto" style="ellipse;whiteSpace=wrap;html=1;align=center;fontStyle=4;" parent="1" vertex="1">
          <mxGeometry x="390" y="840" width="100" height="40" as="geometry" />
        </mxCell>
        <mxCell id="KPG-XOJzVi3PqvCxfSUZ-207" style="edgeStyle=orthogonalEdgeStyle;rounded=0;orthogonalLoop=1;jettySize=auto;html=1;entryX=0.369;entryY=1.038;entryDx=0;entryDy=0;entryPerimeter=0;" parent="1" source="KPG-XOJzVi3PqvCxfSUZ-67" target="KPG-XOJzVi3PqvCxfSUZ-38" edge="1">
          <mxGeometry relative="1" as="geometry" />
        </mxCell>
        <mxCell id="KPG-XOJzVi3PqvCxfSUZ-67" value="Código_Produto" style="ellipse;whiteSpace=wrap;html=1;align=center;fontStyle=4;" parent="1" vertex="1">
          <mxGeometry x="-230" y="960" width="100" height="40" as="geometry" />
        </mxCell>
        <mxCell id="KPG-XOJzVi3PqvCxfSUZ-204" value="" style="edgeStyle=orthogonalEdgeStyle;rounded=0;orthogonalLoop=1;jettySize=auto;html=1;" parent="1" source="KPG-XOJzVi3PqvCxfSUZ-69" target="KPG-XOJzVi3PqvCxfSUZ-56" edge="1">
          <mxGeometry relative="1" as="geometry" />
        </mxCell>
        <mxCell id="KPG-XOJzVi3PqvCxfSUZ-69" value="Código_Produto" style="ellipse;whiteSpace=wrap;html=1;align=center;fontStyle=4;" parent="1" vertex="1">
          <mxGeometry x="-100" y="1020" width="100" height="40" as="geometry" />
        </mxCell>
        <mxCell id="KPG-XOJzVi3PqvCxfSUZ-202" style="edgeStyle=orthogonalEdgeStyle;rounded=0;orthogonalLoop=1;jettySize=auto;html=1;entryX=0.25;entryY=1;entryDx=0;entryDy=0;" parent="1" source="KPG-XOJzVi3PqvCxfSUZ-70" target="KPG-XOJzVi3PqvCxfSUZ-57" edge="1">
          <mxGeometry relative="1" as="geometry" />
        </mxCell>
        <mxCell id="KPG-XOJzVi3PqvCxfSUZ-70" value="Código_Produto" style="ellipse;whiteSpace=wrap;html=1;align=center;fontStyle=4;" parent="1" vertex="1">
          <mxGeometry x="390" y="1129" width="100" height="40" as="geometry" />
        </mxCell>
        <mxCell id="KPG-XOJzVi3PqvCxfSUZ-201" style="edgeStyle=orthogonalEdgeStyle;rounded=0;orthogonalLoop=1;jettySize=auto;html=1;entryX=1;entryY=0.5;entryDx=0;entryDy=0;" parent="1" source="KPG-XOJzVi3PqvCxfSUZ-71" target="KPG-XOJzVi3PqvCxfSUZ-57" edge="1">
          <mxGeometry relative="1" as="geometry" />
        </mxCell>
        <mxCell id="KPG-XOJzVi3PqvCxfSUZ-71" value="Ingredientes" style="ellipse;whiteSpace=wrap;html=1;align=center;" parent="1" vertex="1">
          <mxGeometry x="495" y="1120" width="90" height="40" as="geometry" />
        </mxCell>
        <mxCell id="KPG-XOJzVi3PqvCxfSUZ-196" style="edgeStyle=orthogonalEdgeStyle;rounded=0;orthogonalLoop=1;jettySize=auto;html=1;entryX=0.55;entryY=1.013;entryDx=0;entryDy=0;entryPerimeter=0;" parent="1" source="KPG-XOJzVi3PqvCxfSUZ-72" target="KPG-XOJzVi3PqvCxfSUZ-40" edge="1">
          <mxGeometry relative="1" as="geometry" />
        </mxCell>
        <mxCell id="KPG-XOJzVi3PqvCxfSUZ-72" value="Ingredientes" style="ellipse;whiteSpace=wrap;html=1;align=center;" parent="1" vertex="1">
          <mxGeometry x="680" y="1020" width="100" height="40" as="geometry" />
        </mxCell>
        <mxCell id="KPG-XOJzVi3PqvCxfSUZ-73" value="Número_Pedido" style="ellipse;whiteSpace=wrap;html=1;align=center;fontStyle=4;" parent="1" vertex="1">
          <mxGeometry x="-15" y="615" width="100" height="40" as="geometry" />
        </mxCell>
        <mxCell id="KPG-XOJzVi3PqvCxfSUZ-75" value="tem" style="rhombus;whiteSpace=wrap;html=1;" parent="1" vertex="1">
          <mxGeometry x="905" y="810" width="50" height="50" as="geometry" />
        </mxCell>
        <mxCell id="KPG-XOJzVi3PqvCxfSUZ-76" value="mora" style="rhombus;whiteSpace=wrap;html=1;" parent="1" vertex="1">
          <mxGeometry x="870" y="600" width="50" height="50" as="geometry" />
        </mxCell>
        <mxCell id="KPG-XOJzVi3PqvCxfSUZ-77" value="entrega" style="rhombus;whiteSpace=wrap;html=1;" parent="1" vertex="1">
          <mxGeometry x="255" y="500" width="50" height="50" as="geometry" />
        </mxCell>
        <mxCell id="KPG-XOJzVi3PqvCxfSUZ-187" value="" style="edgeStyle=orthogonalEdgeStyle;rounded=0;orthogonalLoop=1;jettySize=auto;html=1;" parent="1" source="KPG-XOJzVi3PqvCxfSUZ-78" target="KPG-XOJzVi3PqvCxfSUZ-37" edge="1">
          <mxGeometry relative="1" as="geometry" />
        </mxCell>
        <mxCell id="KPG-XOJzVi3PqvCxfSUZ-78" value="Nome" style="ellipse;whiteSpace=wrap;html=1;align=center;" parent="1" vertex="1">
          <mxGeometry x="1191" y="615" width="100" height="40" as="geometry" />
        </mxCell>
        <mxCell id="KPG-XOJzVi3PqvCxfSUZ-186" style="edgeStyle=orthogonalEdgeStyle;rounded=0;orthogonalLoop=1;jettySize=auto;html=1;" parent="1" source="KPG-XOJzVi3PqvCxfSUZ-79" edge="1">
          <mxGeometry relative="1" as="geometry">
            <mxPoint x="1160" y="670" as="targetPoint" />
          </mxGeometry>
        </mxCell>
        <mxCell id="KPG-XOJzVi3PqvCxfSUZ-79" value="Tempo" style="ellipse;whiteSpace=wrap;html=1;align=center;fontStyle=4;" parent="1" vertex="1">
          <mxGeometry x="1040" y="680" width="100" height="40" as="geometry" />
        </mxCell>
        <mxCell id="KPG-XOJzVi3PqvCxfSUZ-171" style="edgeStyle=orthogonalEdgeStyle;rounded=0;orthogonalLoop=1;jettySize=auto;html=1;exitX=1;exitY=0;exitDx=0;exitDy=0;entryX=0.1;entryY=1.025;entryDx=0;entryDy=0;entryPerimeter=0;" parent="1" source="KPG-XOJzVi3PqvCxfSUZ-80" target="KPG-XOJzVi3PqvCxfSUZ-33" edge="1">
          <mxGeometry relative="1" as="geometry" />
        </mxCell>
        <mxCell id="KPG-XOJzVi3PqvCxfSUZ-80" value="Abrir Caixa" style="ellipse;whiteSpace=wrap;html=1;align=center;" parent="1" vertex="1">
          <mxGeometry x="105" y="700" width="60" height="40" as="geometry" />
        </mxCell>
        <mxCell id="KPG-XOJzVi3PqvCxfSUZ-170" style="edgeStyle=orthogonalEdgeStyle;rounded=0;orthogonalLoop=1;jettySize=auto;html=1;exitX=1;exitY=0;exitDx=0;exitDy=0;entryX=0.5;entryY=1;entryDx=0;entryDy=0;" parent="1" source="KPG-XOJzVi3PqvCxfSUZ-81" target="KPG-XOJzVi3PqvCxfSUZ-33" edge="1">
          <mxGeometry relative="1" as="geometry" />
        </mxCell>
        <mxCell id="KPG-XOJzVi3PqvCxfSUZ-81" value="Fechar Caixa" style="ellipse;whiteSpace=wrap;html=1;align=center;" parent="1" vertex="1">
          <mxGeometry x="180" y="700" width="70" height="40" as="geometry" />
        </mxCell>
        <mxCell id="KPG-XOJzVi3PqvCxfSUZ-173" style="edgeStyle=orthogonalEdgeStyle;rounded=0;orthogonalLoop=1;jettySize=auto;html=1;exitX=1;exitY=0.5;exitDx=0;exitDy=0;entryX=0;entryY=0.25;entryDx=0;entryDy=0;" parent="1" source="KPG-XOJzVi3PqvCxfSUZ-82" target="KPG-XOJzVi3PqvCxfSUZ-33" edge="1">
          <mxGeometry relative="1" as="geometry" />
        </mxCell>
        <mxCell id="KPG-XOJzVi3PqvCxfSUZ-82" value="Endereço" style="ellipse;whiteSpace=wrap;html=1;align=center;" parent="1" vertex="1">
          <mxGeometry x="90" y="605" width="60" height="40" as="geometry" />
        </mxCell>
        <mxCell id="KPG-XOJzVi3PqvCxfSUZ-172" style="edgeStyle=orthogonalEdgeStyle;rounded=0;orthogonalLoop=1;jettySize=auto;html=1;exitX=1;exitY=0.5;exitDx=0;exitDy=0;entryX=-0.006;entryY=0.875;entryDx=0;entryDy=0;entryPerimeter=0;" parent="1" source="KPG-XOJzVi3PqvCxfSUZ-83" target="KPG-XOJzVi3PqvCxfSUZ-33" edge="1">
          <mxGeometry relative="1" as="geometry" />
        </mxCell>
        <mxCell id="KPG-XOJzVi3PqvCxfSUZ-83" value="Data" style="ellipse;whiteSpace=wrap;html=1;align=center;" parent="1" vertex="1">
          <mxGeometry x="90" y="650" width="40" height="40" as="geometry" />
        </mxCell>
        <mxCell id="KPG-XOJzVi3PqvCxfSUZ-84" value="" style="endArrow=none;dashed=1;html=1;dashPattern=1 3;strokeWidth=2;" parent="1" edge="1">
          <mxGeometry width="50" height="50" relative="1" as="geometry">
            <mxPoint x="600" y="1120" as="sourcePoint" />
            <mxPoint x="600" y="800" as="targetPoint" />
          </mxGeometry>
        </mxCell>
        <mxCell id="KPG-XOJzVi3PqvCxfSUZ-85" value="" style="endArrow=none;dashed=1;html=1;dashPattern=1 3;strokeWidth=2;" parent="1" edge="1">
          <mxGeometry width="50" height="50" relative="1" as="geometry">
            <mxPoint x="600" y="1120" as="sourcePoint" />
            <mxPoint x="1240" y="1120" as="targetPoint" />
          </mxGeometry>
        </mxCell>
        <mxCell id="KPG-XOJzVi3PqvCxfSUZ-86" value="" style="endArrow=none;dashed=1;html=1;dashPattern=1 3;strokeWidth=2;" parent="1" edge="1">
          <mxGeometry width="50" height="50" relative="1" as="geometry">
            <mxPoint x="1241" y="1120" as="sourcePoint" />
            <mxPoint x="1241" y="800" as="targetPoint" />
          </mxGeometry>
        </mxCell>
        <mxCell id="KPG-XOJzVi3PqvCxfSUZ-88" value="" style="endArrow=none;dashed=1;html=1;dashPattern=1 3;strokeWidth=2;" parent="1" edge="1">
          <mxGeometry width="50" height="50" relative="1" as="geometry">
            <mxPoint x="601" y="800" as="sourcePoint" />
            <mxPoint x="1241" y="800" as="targetPoint" />
          </mxGeometry>
        </mxCell>
        <mxCell id="KPG-XOJzVi3PqvCxfSUZ-189" value="" style="edgeStyle=orthogonalEdgeStyle;rounded=0;orthogonalLoop=1;jettySize=auto;html=1;" parent="1" source="KPG-XOJzVi3PqvCxfSUZ-89" target="KPG-XOJzVi3PqvCxfSUZ-75" edge="1">
          <mxGeometry relative="1" as="geometry">
            <Array as="points">
              <mxPoint x="935" y="880" />
              <mxPoint x="935" y="880" />
            </Array>
          </mxGeometry>
        </mxCell>
        <mxCell id="KPG-XOJzVi3PqvCxfSUZ-89" value="Preço" style="ellipse;whiteSpace=wrap;html=1;align=center;" parent="1" vertex="1">
          <mxGeometry x="905" y="930" width="60" height="40" as="geometry" />
        </mxCell>
        <mxCell id="KPG-XOJzVi3PqvCxfSUZ-90" value="Fornecedor" style="rounded=0;whiteSpace=wrap;html=1;" parent="1" vertex="1">
          <mxGeometry x="-630" y="840" width="160" height="80" as="geometry" />
        </mxCell>
        <mxCell id="KPG-XOJzVi3PqvCxfSUZ-208" value="" style="edgeStyle=orthogonalEdgeStyle;rounded=0;orthogonalLoop=1;jettySize=auto;html=1;" parent="1" source="KPG-XOJzVi3PqvCxfSUZ-91" target="KPG-XOJzVi3PqvCxfSUZ-90" edge="1">
          <mxGeometry relative="1" as="geometry" />
        </mxCell>
        <mxCell id="KPG-XOJzVi3PqvCxfSUZ-91" value="Id_Fornecedor" style="ellipse;whiteSpace=wrap;html=1;align=center;fontStyle=4;" parent="1" vertex="1">
          <mxGeometry x="-630" y="960" width="100" height="40" as="geometry" />
        </mxCell>
        <mxCell id="KPG-XOJzVi3PqvCxfSUZ-209" style="edgeStyle=orthogonalEdgeStyle;rounded=0;orthogonalLoop=1;jettySize=auto;html=1;exitX=0.5;exitY=1;exitDx=0;exitDy=0;entryX=0.163;entryY=-0.012;entryDx=0;entryDy=0;entryPerimeter=0;" parent="1" source="KPG-XOJzVi3PqvCxfSUZ-92" target="KPG-XOJzVi3PqvCxfSUZ-90" edge="1">
          <mxGeometry relative="1" as="geometry" />
        </mxCell>
        <mxCell id="KPG-XOJzVi3PqvCxfSUZ-92" value="Nome" style="ellipse;whiteSpace=wrap;html=1;align=center;" parent="1" vertex="1">
          <mxGeometry x="-630" y="780" width="50" height="40" as="geometry" />
        </mxCell>
        <mxCell id="KPG-XOJzVi3PqvCxfSUZ-97" value="faz" style="rhombus;whiteSpace=wrap;html=1;" parent="1" vertex="1">
          <mxGeometry x="440" y="615" width="50" height="50" as="geometry" />
        </mxCell>
        <mxCell id="KPG-XOJzVi3PqvCxfSUZ-98" value="" style="endArrow=none;html=1;entryX=1;entryY=0.5;entryDx=0;entryDy=0;exitX=0;exitY=0.75;exitDx=0;exitDy=0;" parent="1" source="KPG-XOJzVi3PqvCxfSUZ-35" target="KPG-XOJzVi3PqvCxfSUZ-97" edge="1">
          <mxGeometry width="50" height="50" relative="1" as="geometry">
            <mxPoint x="572.5" y="675" as="sourcePoint" />
            <mxPoint x="500" y="632.5" as="targetPoint" />
            <Array as="points">
              <mxPoint x="630" y="640" />
            </Array>
          </mxGeometry>
        </mxCell>
        <mxCell id="KPG-XOJzVi3PqvCxfSUZ-99" value="" style="endArrow=none;html=1;entryX=1;entryY=0.5;entryDx=0;entryDy=0;exitX=0;exitY=0.5;exitDx=0;exitDy=0;" parent="1" source="KPG-XOJzVi3PqvCxfSUZ-97" target="KPG-XOJzVi3PqvCxfSUZ-33" edge="1">
          <mxGeometry width="50" height="50" relative="1" as="geometry">
            <mxPoint x="402.5" y="682.5" as="sourcePoint" />
            <mxPoint x="330" y="640" as="targetPoint" />
            <Array as="points">
              <mxPoint x="440" y="640" />
            </Array>
          </mxGeometry>
        </mxCell>
        <mxCell id="KPG-XOJzVi3PqvCxfSUZ-100" value="pede" style="rhombus;whiteSpace=wrap;html=1;" parent="1" vertex="1">
          <mxGeometry x="160" y="520" width="50" height="50" as="geometry" />
        </mxCell>
        <mxCell id="KPG-XOJzVi3PqvCxfSUZ-103" value="" style="endArrow=none;html=1;exitX=0.5;exitY=0;exitDx=0;exitDy=0;" parent="1" source="KPG-XOJzVi3PqvCxfSUZ-100" edge="1">
          <mxGeometry width="50" height="50" relative="1" as="geometry">
            <mxPoint x="70" y="490" as="sourcePoint" />
            <mxPoint x="120" y="440" as="targetPoint" />
          </mxGeometry>
        </mxCell>
        <mxCell id="KPG-XOJzVi3PqvCxfSUZ-104" value="" style="endArrow=none;html=1;exitX=0.156;exitY=0;exitDx=0;exitDy=0;exitPerimeter=0;" parent="1" source="KPG-XOJzVi3PqvCxfSUZ-33" edge="1">
          <mxGeometry width="50" height="50" relative="1" as="geometry">
            <mxPoint x="250" y="650" as="sourcePoint" />
            <mxPoint x="185" y="570" as="targetPoint" />
          </mxGeometry>
        </mxCell>
        <mxCell id="KPG-XOJzVi3PqvCxfSUZ-105" value="" style="endArrow=none;html=1;exitX=0;exitY=0.5;exitDx=0;exitDy=0;" parent="1" edge="1">
          <mxGeometry width="50" height="50" relative="1" as="geometry">
            <mxPoint x="870" y="624.5" as="sourcePoint" />
            <mxPoint x="790" y="625" as="targetPoint" />
            <Array as="points">
              <mxPoint x="870" y="624.5" />
            </Array>
          </mxGeometry>
        </mxCell>
        <mxCell id="KPG-XOJzVi3PqvCxfSUZ-106" value="" style="endArrow=none;html=1;exitX=0;exitY=0.5;exitDx=0;exitDy=0;" parent="1" edge="1">
          <mxGeometry width="50" height="50" relative="1" as="geometry">
            <mxPoint x="1000" y="624.5" as="sourcePoint" />
            <mxPoint x="920" y="625" as="targetPoint" />
            <Array as="points">
              <mxPoint x="1000" y="624.5" />
            </Array>
          </mxGeometry>
        </mxCell>
        <mxCell id="KPG-XOJzVi3PqvCxfSUZ-107" value="" style="endArrow=none;html=1;exitX=0;exitY=0.5;exitDx=0;exitDy=0;entryX=1;entryY=0.5;entryDx=0;entryDy=0;" parent="1" target="KPG-XOJzVi3PqvCxfSUZ-40" edge="1">
          <mxGeometry width="50" height="50" relative="1" as="geometry">
            <mxPoint x="910" y="879.5" as="sourcePoint" />
            <mxPoint x="830" y="880" as="targetPoint" />
            <Array as="points">
              <mxPoint x="910" y="879.5" />
            </Array>
          </mxGeometry>
        </mxCell>
        <mxCell id="KPG-XOJzVi3PqvCxfSUZ-108" value="" style="endArrow=none;html=1;exitX=0;exitY=0.5;exitDx=0;exitDy=0;" parent="1" edge="1">
          <mxGeometry width="50" height="50" relative="1" as="geometry">
            <mxPoint x="1040" y="879.5" as="sourcePoint" />
            <mxPoint x="960" y="880" as="targetPoint" />
            <Array as="points">
              <mxPoint x="1040" y="879.5" />
            </Array>
          </mxGeometry>
        </mxCell>
        <mxCell id="KPG-XOJzVi3PqvCxfSUZ-109" value="tem" style="rhombus;whiteSpace=wrap;html=1;" parent="1" vertex="1">
          <mxGeometry x="480" y="780" width="50" height="50" as="geometry" />
        </mxCell>
        <mxCell id="KPG-XOJzVi3PqvCxfSUZ-113" value="" style="endArrow=none;html=1;entryX=1;entryY=1;entryDx=0;entryDy=0;exitX=0;exitY=0.5;exitDx=0;exitDy=0;" parent="1" source="KPG-XOJzVi3PqvCxfSUZ-109" edge="1">
          <mxGeometry width="50" height="50" relative="1" as="geometry">
            <mxPoint x="450" y="780" as="sourcePoint" />
            <mxPoint x="320" y="679.8299999999999" as="targetPoint" />
          </mxGeometry>
        </mxCell>
        <mxCell id="KPG-XOJzVi3PqvCxfSUZ-116" value="é" style="rhombus;whiteSpace=wrap;html=1;" parent="1" vertex="1">
          <mxGeometry x="240" y="1000" width="80" height="80" as="geometry" />
        </mxCell>
        <mxCell id="KPG-XOJzVi3PqvCxfSUZ-117" value="" style="endArrow=none;html=1;" parent="1" edge="1">
          <mxGeometry width="50" height="50" relative="1" as="geometry">
            <mxPoint x="280" y="1090" as="sourcePoint" />
            <mxPoint x="230" y="1040" as="targetPoint" />
          </mxGeometry>
        </mxCell>
        <mxCell id="KPG-XOJzVi3PqvCxfSUZ-118" value="" style="endArrow=none;html=1;" parent="1" edge="1">
          <mxGeometry width="50" height="50" relative="1" as="geometry">
            <mxPoint x="330" y="1040" as="sourcePoint" />
            <mxPoint x="280" y="990" as="targetPoint" />
          </mxGeometry>
        </mxCell>
        <mxCell id="KPG-XOJzVi3PqvCxfSUZ-119" value="" style="endArrow=none;html=1;" parent="1" edge="1">
          <mxGeometry width="50" height="50" relative="1" as="geometry">
            <mxPoint x="330" y="1040" as="sourcePoint" />
            <mxPoint x="280" y="1090" as="targetPoint" />
          </mxGeometry>
        </mxCell>
        <mxCell id="KPG-XOJzVi3PqvCxfSUZ-120" value="" style="endArrow=none;html=1;" parent="1" edge="1">
          <mxGeometry width="50" height="50" relative="1" as="geometry">
            <mxPoint x="280" y="990" as="sourcePoint" />
            <mxPoint x="230" y="1040" as="targetPoint" />
          </mxGeometry>
        </mxCell>
        <mxCell id="KPG-XOJzVi3PqvCxfSUZ-121" value="" style="endArrow=none;html=1;exitX=0;exitY=0.5;exitDx=0;exitDy=0;" parent="1" edge="1">
          <mxGeometry width="50" height="50" relative="1" as="geometry">
            <mxPoint x="230" y="1039" as="sourcePoint" />
            <mxPoint x="150" y="1039.5" as="targetPoint" />
            <Array as="points">
              <mxPoint x="230" y="1039" />
            </Array>
          </mxGeometry>
        </mxCell>
        <mxCell id="KPG-XOJzVi3PqvCxfSUZ-122" value="" style="endArrow=none;html=1;exitX=0;exitY=0.5;exitDx=0;exitDy=0;" parent="1" edge="1">
          <mxGeometry width="50" height="50" relative="1" as="geometry">
            <mxPoint x="410" y="1039" as="sourcePoint" />
            <mxPoint x="330" y="1039.5" as="targetPoint" />
            <Array as="points">
              <mxPoint x="410" y="1039" />
            </Array>
          </mxGeometry>
        </mxCell>
        <mxCell id="KPG-XOJzVi3PqvCxfSUZ-206" style="edgeStyle=orthogonalEdgeStyle;rounded=0;orthogonalLoop=1;jettySize=auto;html=1;entryX=0.825;entryY=1.025;entryDx=0;entryDy=0;entryPerimeter=0;" parent="1" source="KPG-XOJzVi3PqvCxfSUZ-123" target="KPG-XOJzVi3PqvCxfSUZ-56" edge="1">
          <mxGeometry relative="1" as="geometry" />
        </mxCell>
        <mxCell id="KPG-XOJzVi3PqvCxfSUZ-123" value="Tamanho" style="ellipse;whiteSpace=wrap;html=1;align=center;" parent="1" vertex="1">
          <mxGeometry x="100" y="1129" width="60" height="40" as="geometry" />
        </mxCell>
        <mxCell id="KPG-XOJzVi3PqvCxfSUZ-133" value="tem" style="rhombus;whiteSpace=wrap;html=1;" parent="1" vertex="1">
          <mxGeometry x="-380" y="855" width="50" height="50" as="geometry" />
        </mxCell>
        <mxCell id="KPG-XOJzVi3PqvCxfSUZ-135" value="" style="endArrow=none;html=1;exitX=0;exitY=0.5;exitDx=0;exitDy=0;entryX=1;entryY=0.5;entryDx=0;entryDy=0;" parent="1" edge="1">
          <mxGeometry width="50" height="50" relative="1" as="geometry">
            <mxPoint x="-240" y="879.5" as="sourcePoint" />
            <mxPoint x="-330" y="880" as="targetPoint" />
            <Array as="points">
              <mxPoint x="-240" y="879.5" />
            </Array>
          </mxGeometry>
        </mxCell>
        <mxCell id="KPG-XOJzVi3PqvCxfSUZ-211" style="edgeStyle=orthogonalEdgeStyle;rounded=0;orthogonalLoop=1;jettySize=auto;html=1;entryX=0.656;entryY=0;entryDx=0;entryDy=0;entryPerimeter=0;" parent="1" source="KPG-XOJzVi3PqvCxfSUZ-136" target="KPG-XOJzVi3PqvCxfSUZ-90" edge="1">
          <mxGeometry relative="1" as="geometry" />
        </mxCell>
        <mxCell id="KPG-XOJzVi3PqvCxfSUZ-136" value="Telefone" style="ellipse;whiteSpace=wrap;html=1;align=center;" parent="1" vertex="1">
          <mxGeometry x="-560" y="780" width="70" height="40" as="geometry" />
        </mxCell>
        <mxCell id="KPG-XOJzVi3PqvCxfSUZ-139" value="" style="endArrow=none;html=1;" parent="1" edge="1">
          <mxGeometry width="50" height="50" relative="1" as="geometry">
            <mxPoint x="279.5" y="990" as="sourcePoint" />
            <mxPoint x="279.5" y="989.5" as="targetPoint" />
            <Array as="points">
              <mxPoint x="280" y="920" />
            </Array>
          </mxGeometry>
        </mxCell>
        <mxCell id="KPG-XOJzVi3PqvCxfSUZ-140" value="" style="endArrow=none;html=1;exitX=0;exitY=0.5;exitDx=0;exitDy=0;entryX=1;entryY=0.5;entryDx=0;entryDy=0;" parent="1" edge="1">
          <mxGeometry width="50" height="50" relative="1" as="geometry">
            <mxPoint x="-380" y="879.5" as="sourcePoint" />
            <mxPoint x="-470" y="880" as="targetPoint" />
            <Array as="points">
              <mxPoint x="-380" y="879.5" />
            </Array>
          </mxGeometry>
        </mxCell>
        <mxCell id="KPG-XOJzVi3PqvCxfSUZ-141" value="contém" style="rhombus;whiteSpace=wrap;html=1;" parent="1" vertex="1">
          <mxGeometry x="55" y="855" width="50" height="50" as="geometry" />
        </mxCell>
        <mxCell id="KPG-XOJzVi3PqvCxfSUZ-142" value="" style="endArrow=none;html=1;exitX=0;exitY=0.5;exitDx=0;exitDy=0;entryX=1;entryY=0.5;entryDx=0;entryDy=0;" parent="1" target="KPG-XOJzVi3PqvCxfSUZ-38" edge="1">
          <mxGeometry width="50" height="50" relative="1" as="geometry">
            <mxPoint x="55" y="879.5" as="sourcePoint" />
            <mxPoint x="-35" y="880" as="targetPoint" />
            <Array as="points">
              <mxPoint x="55" y="879.5" />
            </Array>
          </mxGeometry>
        </mxCell>
        <mxCell id="KPG-XOJzVi3PqvCxfSUZ-143" value="" style="endArrow=none;html=1;exitX=0;exitY=0.5;exitDx=0;exitDy=0;entryX=0.9;entryY=0.5;entryDx=0;entryDy=0;entryPerimeter=0;" parent="1" target="KPG-XOJzVi3PqvCxfSUZ-141" edge="1">
          <mxGeometry width="50" height="50" relative="1" as="geometry">
            <mxPoint x="200" y="879.5" as="sourcePoint" />
            <mxPoint x="110" y="880" as="targetPoint" />
            <Array as="points">
              <mxPoint x="200" y="879.5" />
            </Array>
          </mxGeometry>
        </mxCell>
        <mxCell id="KPG-XOJzVi3PqvCxfSUZ-144" value="Id" style="ellipse;whiteSpace=wrap;html=1;align=center;fontStyle=4;" parent="1" vertex="1">
          <mxGeometry x="-20" y="40" width="40" height="40" as="geometry" />
        </mxCell>
        <mxCell id="KPG-XOJzVi3PqvCxfSUZ-177" style="edgeStyle=orthogonalEdgeStyle;rounded=0;orthogonalLoop=1;jettySize=auto;html=1;exitX=1;exitY=0;exitDx=0;exitDy=0;entryX=1;entryY=0;entryDx=0;entryDy=0;" parent="1" source="KPG-XOJzVi3PqvCxfSUZ-145" target="KPG-XOJzVi3PqvCxfSUZ-145" edge="1">
          <mxGeometry relative="1" as="geometry" />
        </mxCell>
        <mxCell id="KPG-XOJzVi3PqvCxfSUZ-145" value="Nome" style="ellipse;whiteSpace=wrap;html=1;align=center;" parent="1" vertex="1">
          <mxGeometry x="10" y="90" width="50" height="40" as="geometry" />
        </mxCell>
        <mxCell id="KPG-XOJzVi3PqvCxfSUZ-146" value="Telefone" style="ellipse;whiteSpace=wrap;html=1;align=center;" parent="1" vertex="1">
          <mxGeometry x="270" y="60" width="70" height="40" as="geometry" />
        </mxCell>
        <mxCell id="KPG-XOJzVi3PqvCxfSUZ-147" value="1" style="text;html=1;strokeColor=none;fillColor=none;align=center;verticalAlign=middle;whiteSpace=wrap;rounded=0;" parent="1" vertex="1">
          <mxGeometry x="930" y="600" width="40" height="20" as="geometry" />
        </mxCell>
        <mxCell id="KPG-XOJzVi3PqvCxfSUZ-148" value="n" style="text;html=1;strokeColor=none;fillColor=none;align=center;verticalAlign=middle;whiteSpace=wrap;rounded=0;" parent="1" vertex="1">
          <mxGeometry x="840" y="850" width="40" height="20" as="geometry" />
        </mxCell>
        <mxCell id="KPG-XOJzVi3PqvCxfSUZ-151" value="1" style="text;html=1;strokeColor=none;fillColor=none;align=center;verticalAlign=middle;whiteSpace=wrap;rounded=0;" parent="1" vertex="1">
          <mxGeometry x="280" y="470" width="40" height="20" as="geometry" />
        </mxCell>
        <mxCell id="KPG-XOJzVi3PqvCxfSUZ-152" value="1" style="text;html=1;strokeColor=none;fillColor=none;align=center;verticalAlign=middle;whiteSpace=wrap;rounded=0;" parent="1" vertex="1">
          <mxGeometry x="110" y="470" width="40" height="20" as="geometry" />
        </mxCell>
        <mxCell id="KPG-XOJzVi3PqvCxfSUZ-153" value="n" style="text;html=1;strokeColor=none;fillColor=none;align=center;verticalAlign=middle;whiteSpace=wrap;rounded=0;" parent="1" vertex="1">
          <mxGeometry x="980" y="850" width="40" height="20" as="geometry" />
        </mxCell>
        <mxCell id="KPG-XOJzVi3PqvCxfSUZ-154" value="n" style="text;html=1;strokeColor=none;fillColor=none;align=center;verticalAlign=middle;whiteSpace=wrap;rounded=0;" parent="1" vertex="1">
          <mxGeometry x="410" y="730" width="40" height="20" as="geometry" />
        </mxCell>
        <mxCell id="KPG-XOJzVi3PqvCxfSUZ-155" value="n" style="text;html=1;strokeColor=none;fillColor=none;align=center;verticalAlign=middle;whiteSpace=wrap;rounded=0;" parent="1" vertex="1">
          <mxGeometry x="540" y="770" width="40" height="20" as="geometry" />
        </mxCell>
        <mxCell id="KPG-XOJzVi3PqvCxfSUZ-156" value="n" style="text;html=1;strokeColor=none;fillColor=none;align=center;verticalAlign=middle;whiteSpace=wrap;rounded=0;" parent="1" vertex="1">
          <mxGeometry x="800" y="590" width="40" height="20" as="geometry" />
        </mxCell>
        <mxCell id="KPG-XOJzVi3PqvCxfSUZ-158" value="1" style="text;html=1;strokeColor=none;fillColor=none;align=center;verticalAlign=middle;whiteSpace=wrap;rounded=0;" parent="1" vertex="1">
          <mxGeometry x="520" y="615" width="40" height="20" as="geometry" />
        </mxCell>
        <mxCell id="KPG-XOJzVi3PqvCxfSUZ-161" value="n" style="text;html=1;strokeColor=none;fillColor=none;align=center;verticalAlign=middle;whiteSpace=wrap;rounded=0;" parent="1" vertex="1">
          <mxGeometry x="365" y="605" width="40" height="30" as="geometry" />
        </mxCell>
        <mxCell id="KPG-XOJzVi3PqvCxfSUZ-162" value="possui" style="rhombus;whiteSpace=wrap;html=1;" parent="1" vertex="1">
          <mxGeometry x="255" y="755" width="50" height="50" as="geometry" />
        </mxCell>
        <mxCell id="KPG-XOJzVi3PqvCxfSUZ-163" value="" style="endArrow=none;html=1;entryX=0.75;entryY=1;entryDx=0;entryDy=0;" parent="1" target="KPG-XOJzVi3PqvCxfSUZ-33" edge="1">
          <mxGeometry width="50" height="50" relative="1" as="geometry">
            <mxPoint x="280" y="755" as="sourcePoint" />
            <mxPoint x="330" y="705" as="targetPoint" />
          </mxGeometry>
        </mxCell>
        <mxCell id="KPG-XOJzVi3PqvCxfSUZ-164" value="" style="endArrow=none;html=1;exitX=0.5;exitY=0;exitDx=0;exitDy=0;" parent="1" source="KPG-XOJzVi3PqvCxfSUZ-36" edge="1">
          <mxGeometry width="50" height="50" relative="1" as="geometry">
            <mxPoint x="230" y="855" as="sourcePoint" />
            <mxPoint x="280" y="805" as="targetPoint" />
          </mxGeometry>
        </mxCell>
        <mxCell id="KPG-XOJzVi3PqvCxfSUZ-212" value="tem" style="rhombus;whiteSpace=wrap;html=1;" parent="1" vertex="1">
          <mxGeometry x="645" y="470" width="50" height="50" as="geometry" />
        </mxCell>
        <mxCell id="KPG-XOJzVi3PqvCxfSUZ-213" value="" style="endArrow=none;html=1;exitX=0.5;exitY=0;exitDx=0;exitDy=0;" parent="1" source="KPG-XOJzVi3PqvCxfSUZ-212" edge="1">
          <mxGeometry width="50" height="50" relative="1" as="geometry">
            <mxPoint x="670" y="450" as="sourcePoint" />
            <mxPoint x="670" y="430" as="targetPoint" />
          </mxGeometry>
        </mxCell>
        <mxCell id="KPG-XOJzVi3PqvCxfSUZ-217" value="" style="endArrow=none;html=1;exitX=0.25;exitY=0;exitDx=0;exitDy=0;" parent="1" source="KPG-XOJzVi3PqvCxfSUZ-35" edge="1">
          <mxGeometry width="50" height="50" relative="1" as="geometry">
            <mxPoint x="669.5" y="560" as="sourcePoint" />
            <mxPoint x="669.5" y="520" as="targetPoint" />
          </mxGeometry>
        </mxCell>
        <mxCell id="KPG-XOJzVi3PqvCxfSUZ-218" value="1" style="text;html=1;strokeColor=none;fillColor=none;align=center;verticalAlign=middle;whiteSpace=wrap;rounded=0;" parent="1" vertex="1">
          <mxGeometry x="-310" y="850" width="40" height="20" as="geometry" />
        </mxCell>
        <mxCell id="KPG-XOJzVi3PqvCxfSUZ-219" value="1" style="text;html=1;strokeColor=none;fillColor=none;align=center;verticalAlign=middle;whiteSpace=wrap;rounded=0;" parent="1" vertex="1">
          <mxGeometry x="-440" y="840" width="40" height="30" as="geometry" />
        </mxCell>
        <mxCell id="KPG-XOJzVi3PqvCxfSUZ-220" value="1" style="text;html=1;strokeColor=none;fillColor=none;align=center;verticalAlign=middle;whiteSpace=wrap;rounded=0;" parent="1" vertex="1">
          <mxGeometry x="-40" y="855" width="40" height="20" as="geometry" />
        </mxCell>
        <mxCell id="KPG-XOJzVi3PqvCxfSUZ-221" value="n" style="text;html=1;strokeColor=none;fillColor=none;align=center;verticalAlign=middle;whiteSpace=wrap;rounded=0;" parent="1" vertex="1">
          <mxGeometry x="130" y="845" width="40" height="30" as="geometry" />
        </mxCell>
        <mxCell id="CF_QVuXvldoDAZXPr2X7-7" style="edgeStyle=orthogonalEdgeStyle;rounded=0;orthogonalLoop=1;jettySize=auto;html=1;exitX=1;exitY=0;exitDx=0;exitDy=0;entryX=0.919;entryY=0.988;entryDx=0;entryDy=0;entryPerimeter=0;" parent="1" source="CF_QVuXvldoDAZXPr2X7-1" target="KPG-XOJzVi3PqvCxfSUZ-36" edge="1">
          <mxGeometry relative="1" as="geometry" />
        </mxCell>
        <mxCell id="CF_QVuXvldoDAZXPr2X7-1" value="Nome" style="ellipse;whiteSpace=wrap;html=1;align=center;" parent="1" vertex="1">
          <mxGeometry x="310" y="940" width="50" height="40" as="geometry" />
        </mxCell>
        <mxCell id="CF_QVuXvldoDAZXPr2X7-10" style="edgeStyle=orthogonalEdgeStyle;rounded=0;orthogonalLoop=1;jettySize=auto;html=1;exitX=0.5;exitY=0;exitDx=0;exitDy=0;entryX=0;entryY=0.75;entryDx=0;entryDy=0;" parent="1" source="CF_QVuXvldoDAZXPr2X7-8" target="KPG-XOJzVi3PqvCxfSUZ-36" edge="1">
          <mxGeometry relative="1" as="geometry" />
        </mxCell>
        <mxCell id="CF_QVuXvldoDAZXPr2X7-8" value="Descrição" style="ellipse;whiteSpace=wrap;html=1;align=center;" parent="1" vertex="1">
          <mxGeometry x="110" y="940" width="60" height="40" as="geometry" />
        </mxCell>
        <mxCell id="CF_QVuXvldoDAZXPr2X7-12" style="edgeStyle=orthogonalEdgeStyle;rounded=0;orthogonalLoop=1;jettySize=auto;html=1;entryX=0.181;entryY=-0.025;entryDx=0;entryDy=0;entryPerimeter=0;" parent="1" source="CF_QVuXvldoDAZXPr2X7-11" target="KPG-XOJzVi3PqvCxfSUZ-38" edge="1">
          <mxGeometry relative="1" as="geometry" />
        </mxCell>
        <mxCell id="CF_QVuXvldoDAZXPr2X7-11" value="Alerta" style="ellipse;whiteSpace=wrap;html=1;align=center;" parent="1" vertex="1">
          <mxGeometry x="-240" y="770" width="50" height="40" as="geometry" />
        </mxCell>
        <mxCell id="CF_QVuXvldoDAZXPr2X7-14" style="edgeStyle=orthogonalEdgeStyle;rounded=0;orthogonalLoop=1;jettySize=auto;html=1;exitX=0.5;exitY=1;exitDx=0;exitDy=0;" parent="1" source="CF_QVuXvldoDAZXPr2X7-13" target="KPG-XOJzVi3PqvCxfSUZ-97" edge="1">
          <mxGeometry relative="1" as="geometry" />
        </mxCell>
        <mxCell id="CF_QVuXvldoDAZXPr2X7-13" value="Status" style="ellipse;whiteSpace=wrap;html=1;align=center;" parent="1" vertex="1">
          <mxGeometry x="414" y="560" width="70" height="40" as="geometry" />
        </mxCell>
        <mxCell id="M0uIH-TrYU2wMvutDTAN-2" value="n" style="text;html=1;align=center;verticalAlign=middle;resizable=0;points=[];autosize=1;strokeColor=none;" parent="1" vertex="1">
          <mxGeometry x="290" y="565" width="20" height="20" as="geometry" />
        </mxCell>
        <mxCell id="M0uIH-TrYU2wMvutDTAN-5" value="" style="endArrow=none;html=1;" parent="1" edge="1">
          <mxGeometry width="50" height="50" relative="1" as="geometry">
            <mxPoint x="930" y="795" as="sourcePoint" />
            <mxPoint x="930" y="755" as="targetPoint" />
          </mxGeometry>
        </mxCell>
        <mxCell id="M0uIH-TrYU2wMvutDTAN-6" value="" style="endArrow=none;html=1;" parent="1" edge="1">
          <mxGeometry width="50" height="50" relative="1" as="geometry">
            <mxPoint x="510" y="755" as="sourcePoint" />
            <mxPoint x="930" y="755" as="targetPoint" />
          </mxGeometry>
        </mxCell>
        <mxCell id="M0uIH-TrYU2wMvutDTAN-7" value="" style="endArrow=none;html=1;exitX=0.5;exitY=0;exitDx=0;exitDy=0;" parent="1" source="KPG-XOJzVi3PqvCxfSUZ-109" edge="1">
          <mxGeometry width="50" height="50" relative="1" as="geometry">
            <mxPoint x="480" y="780" as="sourcePoint" />
            <mxPoint x="510" y="755" as="targetPoint" />
          </mxGeometry>
        </mxCell>
        <mxCell id="pCtppnrgsNheikaqJxPt-3" value="é" style="triangle;whiteSpace=wrap;html=1;" parent="1" vertex="1">
          <mxGeometry x="140" y="200" width="60" height="80" as="geometry" />
        </mxCell>
        <mxCell id="pCtppnrgsNheikaqJxPt-5" value="" style="shape=waypoint;sketch=0;size=6;pointerEvents=1;points=[];fillColor=none;resizable=0;rotatable=0;perimeter=centerPerimeter;snapToPoint=1;" parent="1" vertex="1">
          <mxGeometry x="250" y="60" width="40" height="40" as="geometry" />
        </mxCell>
        <mxCell id="pCtppnrgsNheikaqJxPt-6" value="" style="line;strokeWidth=2;html=1;" parent="1" vertex="1">
          <mxGeometry x="240" y="75" width="30" height="10" as="geometry" />
        </mxCell>
        <mxCell id="pCtppnrgsNheikaqJxPt-9" value="" style="endArrow=none;html=1;exitX=0.5;exitY=0;exitDx=0;exitDy=0;" parent="1" edge="1">
          <mxGeometry width="50" height="50" relative="1" as="geometry">
            <mxPoint x="280" y="600" as="sourcePoint" />
            <mxPoint x="280" y="550" as="targetPoint" />
          </mxGeometry>
        </mxCell>
        <mxCell id="pCtppnrgsNheikaqJxPt-10" value="" style="endArrow=none;html=1;exitX=0.5;exitY=0;exitDx=0;exitDy=0;entryX=0.667;entryY=1.01;entryDx=0;entryDy=0;entryPerimeter=0;" parent="1" target="KPG-XOJzVi3PqvCxfSUZ-8" edge="1">
          <mxGeometry width="50" height="50" relative="1" as="geometry">
            <mxPoint x="279.41" y="500" as="sourcePoint" />
            <mxPoint x="279.41" y="450" as="targetPoint" />
          </mxGeometry>
        </mxCell>
        <mxCell id="pCtppnrgsNheikaqJxPt-13" value="1" style="text;html=1;strokeColor=none;fillColor=none;align=center;verticalAlign=middle;whiteSpace=wrap;rounded=0;" parent="1" vertex="1">
          <mxGeometry x="620" y="545" width="40" height="20" as="geometry" />
        </mxCell>
        <mxCell id="pCtppnrgsNheikaqJxPt-16" value="n" style="text;html=1;strokeColor=none;fillColor=none;align=center;verticalAlign=middle;whiteSpace=wrap;rounded=0;" parent="1" vertex="1">
          <mxGeometry x="620" y="450" width="40" height="20" as="geometry" />
        </mxCell>
      </root>
    </mxGraphModel>
  </diagram>
</mxfile>
